<svg width="268" height="106" viewBox="0 0 268 106" fill="none" xmlns="http://www.w3.org/2000/svg">
<g filter="url(#filter0_i_49_5)">
<path d="M0 49H254.094V57.2909V106H0V49Z" fill="#E06132"/>
<path d="M268 49H254.094V57.2909L268 49Z" fill="#E06132"/>
<path d="M32.9668 91L31.1035 84.8828H21.7344L19.8711 91H14L23.0703 65.1953H29.7324L38.8379 91H32.9668ZM29.8027 80.3125L27.9395 74.3359C27.8223 73.9375 27.6641 73.4277 27.4648 72.8066C27.2773 72.1738 27.084 71.5352 26.8848 70.8906C26.6973 70.2344 26.5449 69.666 26.4277 69.1855C26.3105 69.666 26.1465 70.2637 25.9355 70.9785C25.7363 71.6816 25.543 72.3496 25.3555 72.9824C25.168 73.6152 25.0332 74.0664 24.9512 74.3359L23.1055 80.3125H29.8027ZM42.0898 91V65.3008H47.5391V86.5H57.9629V91H42.0898ZM78.1777 91L76.3145 84.8828H66.9453L65.082 91H59.2109L68.2812 65.1953H74.9434L84.0488 91H78.1777ZM75.0137 80.3125L73.1504 74.3359C73.0332 73.9375 72.875 73.4277 72.6758 72.8066C72.4883 72.1738 72.2949 71.5352 72.0957 70.8906C71.9082 70.2344 71.7559 69.666 71.6387 69.1855C71.5215 69.666 71.3574 70.2637 71.1465 70.9785C70.9473 71.6816 70.7539 72.3496 70.5664 72.9824C70.3789 73.6152 70.2441 74.0664 70.1621 74.3359L68.3164 80.3125H75.0137ZM95.5098 65.3008C98.8262 65.3008 101.246 66.0156 102.77 67.4453C104.293 68.8633 105.055 70.8203 105.055 73.3164C105.055 74.4414 104.885 75.5195 104.545 76.5508C104.205 77.5703 103.648 78.4785 102.875 79.2754C102.113 80.0723 101.094 80.7051 99.8164 81.1738C98.5391 81.6309 96.9629 81.8594 95.0879 81.8594H92.75V91H87.3008V65.3008H95.5098ZM95.2285 69.7656H92.75V77.3945H94.543C95.5625 77.3945 96.4473 77.2598 97.1973 76.9902C97.9473 76.7207 98.5273 76.2988 98.9375 75.7246C99.3477 75.1504 99.5527 74.4121 99.5527 73.5098C99.5527 72.2441 99.2012 71.3066 98.498 70.6973C97.7949 70.0762 96.7051 69.7656 95.2285 69.7656ZM109.906 91V65.3008H115.355V91H109.906ZM120.225 57.373V57.7422C119.885 58.0703 119.439 58.4746 118.889 58.9551C118.338 59.4355 117.746 59.9395 117.113 60.4668C116.48 60.9824 115.859 61.4805 115.25 61.9609C114.641 62.4297 114.107 62.8223 113.65 63.1387H110.082V62.6641C110.469 62.2188 110.914 61.6914 111.418 61.082C111.934 60.4609 112.443 59.8223 112.947 59.166C113.451 58.5098 113.873 57.9121 114.213 57.373H120.225ZM131.738 91H126.289V69.8359H119.311V65.3008H138.717V69.8359H131.738V91ZM162.834 65.3008L154.098 91H148.156L139.438 65.3008H144.939L149.773 80.5938C149.855 80.8516 149.99 81.3379 150.178 82.0527C150.365 82.7559 150.553 83.5059 150.74 84.3027C150.939 85.0879 151.074 85.7383 151.145 86.2539C151.215 85.7383 151.338 85.0879 151.514 84.3027C151.701 83.5176 151.883 82.7734 152.059 82.0703C152.246 81.3555 152.381 80.8633 152.463 80.5938L157.332 65.3008H162.834ZM181.818 91L179.955 84.8828H170.586L168.723 91H162.852L171.922 65.1953H178.584L187.689 91H181.818ZM178.654 80.3125L176.791 74.3359C176.674 73.9375 176.516 73.4277 176.316 72.8066C176.129 72.1738 175.936 71.5352 175.736 70.8906C175.549 70.2344 175.396 69.666 175.279 69.1855C175.162 69.666 174.998 70.2637 174.787 70.9785C174.588 71.6816 174.395 72.3496 174.207 72.9824C174.02 73.6152 173.885 74.0664 173.803 74.3359L171.957 80.3125H178.654ZM182.17 57.373V57.7422C181.83 58.0703 181.385 58.4746 180.834 58.9551C180.283 59.4355 179.691 59.9395 179.059 60.4668C178.426 60.9824 177.805 61.4805 177.195 61.9609C176.586 62.4297 176.053 62.8223 175.596 63.1387H172.027V62.6641C172.414 62.2188 172.859 61.6914 173.363 61.082C173.879 60.4609 174.389 59.8223 174.893 59.166C175.396 58.5098 175.818 57.9121 176.158 57.373H182.17ZM213.74 91H206.814L195.635 71.5586H195.477C195.523 72.3672 195.564 73.1816 195.6 74.002C195.635 74.8223 195.67 75.6426 195.705 76.4629C195.74 77.2715 195.775 78.0859 195.811 78.9062V91H190.941V65.3008H197.814L208.977 84.5488H209.1C209.076 83.752 209.047 82.9609 209.012 82.1758C208.977 81.3906 208.941 80.6055 208.906 79.8203C208.883 79.0352 208.859 78.25 208.836 77.4648V65.3008H213.74V91ZM228.225 75.8828L233.586 65.3008H239.457L230.932 80.998V91H225.518V81.1738L216.992 65.3008H222.898L228.225 75.8828Z" fill="#FBFBFB"/>
<path d="M7.17578 41.1543C6.53125 41.1543 5.96875 41.1133 5.48828 41.0312C4.99609 40.9609 4.57422 40.8613 4.22266 40.7324V37.1992C4.59766 37.293 5.00195 37.375 5.43555 37.4453C5.86914 37.5156 6.33203 37.5508 6.82422 37.5508C7.46875 37.5508 8.05469 37.4277 8.58203 37.1816C9.10938 36.9355 9.52539 36.4902 9.83008 35.8457C10.1465 35.2012 10.3047 34.293 10.3047 33.1211V8.30078H14.5234V32.9805C14.5234 34.8906 14.2188 36.4434 13.6094 37.6387C13 38.8457 12.1445 39.7305 11.043 40.293C9.94141 40.8672 8.65234 41.1543 7.17578 41.1543ZM43.9844 21.1152C43.9844 23.0957 43.7324 24.9004 43.2285 26.5293C42.7363 28.1465 41.9922 29.541 40.9961 30.7129C40 31.873 38.752 32.7695 37.252 33.4023C35.752 34.0352 33.9941 34.3516 31.9785 34.3516C29.9277 34.3516 28.1465 34.0352 26.6348 33.4023C25.1348 32.7695 23.8867 31.8672 22.8906 30.6953C21.9062 29.5234 21.168 28.123 20.6758 26.4941C20.1836 24.8652 19.9375 23.0605 19.9375 21.0801C19.9375 18.4316 20.3711 16.123 21.2383 14.1543C22.1172 12.1738 23.4473 10.6387 25.2285 9.54883C27.0215 8.44727 29.2832 7.89648 32.0137 7.89648C34.6855 7.89648 36.9062 8.44141 38.6758 9.53125C40.4453 10.6211 41.7695 12.1562 42.6484 14.1367C43.5391 16.1055 43.9844 18.4316 43.9844 21.1152ZM24.3672 21.1152C24.3672 23.0957 24.6367 24.8125 25.1758 26.2656C25.7148 27.707 26.541 28.8203 27.6543 29.6055C28.7793 30.3789 30.2207 30.7656 31.9785 30.7656C33.748 30.7656 35.1895 30.3789 36.3027 29.6055C37.416 28.8203 38.2363 27.707 38.7637 26.2656C39.291 24.8125 39.5547 23.0957 39.5547 21.1152C39.5547 18.1035 38.9512 15.748 37.7441 14.0488C36.5488 12.3379 34.6387 11.4824 32.0137 11.4824C30.2559 11.4824 28.8086 11.8691 27.6719 12.6426C26.5469 13.416 25.7148 14.5234 25.1758 15.9648C24.6367 17.3945 24.3672 19.1113 24.3672 21.1152ZM26.4766 3.13281C26.4766 2.42969 26.6699 1.91992 27.0566 1.60352C27.4434 1.27539 27.918 1.11133 28.4805 1.11133C29.043 1.11133 29.5234 1.27539 29.9219 1.60352C30.332 1.91992 30.5371 2.42969 30.5371 3.13281C30.5371 3.8125 30.332 4.32227 29.9219 4.66211C29.5234 5.00195 29.043 5.17188 28.4805 5.17188C27.918 5.17188 27.4434 5.00195 27.0566 4.66211C26.6699 4.32227 26.4766 3.8125 26.4766 3.13281ZM33.3848 3.13281C33.3848 2.42969 33.5781 1.91992 33.9648 1.60352C34.3633 1.27539 34.8438 1.11133 35.4062 1.11133C35.9688 1.11133 36.4492 1.27539 36.8477 1.60352C37.2578 1.91992 37.4629 2.42969 37.4629 3.13281C37.4629 3.8125 37.2578 4.32227 36.8477 4.66211C36.4492 5.00195 35.9688 5.17188 35.4062 5.17188C34.8438 5.17188 34.3633 5.00195 33.9648 4.66211C33.5781 4.32227 33.3848 3.8125 33.3848 3.13281ZM68.5586 8.30078L59.5762 34H55.1113L46.1289 8.30078H50.4531L55.8672 24.4023C56.0312 24.8711 56.207 25.4395 56.3945 26.1074C56.5938 26.7754 56.7754 27.4492 56.9395 28.1289C57.1152 28.8086 57.25 29.4121 57.3438 29.9395C57.4375 29.4121 57.5664 28.8086 57.7305 28.1289C57.9062 27.4492 58.0879 26.7754 58.2754 26.1074C58.4629 25.4395 58.6387 24.8652 58.8027 24.3848L64.2344 8.30078H68.5586ZM94.75 21.1152C94.75 23.0957 94.498 24.9004 93.9941 26.5293C93.502 28.1465 92.7578 29.541 91.7617 30.7129C90.7656 31.873 89.5176 32.7695 88.0176 33.4023C86.5176 34.0352 84.7598 34.3516 82.7441 34.3516C80.6934 34.3516 78.9121 34.0352 77.4004 33.4023C75.9004 32.7695 74.6523 31.8672 73.6562 30.6953C72.6719 29.5234 71.9336 28.123 71.4414 26.4941C70.9492 24.8652 70.7031 23.0605 70.7031 21.0801C70.7031 18.4316 71.1367 16.123 72.0039 14.1543C72.8828 12.1738 74.2129 10.6387 75.9941 9.54883C77.7871 8.44727 80.0488 7.89648 82.7793 7.89648C85.4512 7.89648 87.6719 8.44141 89.4414 9.53125C91.2109 10.6211 92.5352 12.1562 93.4141 14.1367C94.3047 16.1055 94.75 18.4316 94.75 21.1152ZM75.1328 21.1152C75.1328 23.0957 75.4023 24.8125 75.9414 26.2656C76.4805 27.707 77.3066 28.8203 78.4199 29.6055C79.5449 30.3789 80.9863 30.7656 82.7441 30.7656C84.5137 30.7656 85.9551 30.3789 87.0684 29.6055C88.1816 28.8203 89.002 27.707 89.5293 26.2656C90.0566 24.8125 90.3203 23.0957 90.3203 21.1152C90.3203 18.1035 89.7168 15.748 88.5098 14.0488C87.3145 12.3379 85.4043 11.4824 82.7793 11.4824C81.0215 11.4824 79.5742 11.8691 78.4375 12.6426C77.3125 13.416 76.4805 14.5234 75.9414 15.9648C75.4023 17.3945 75.1328 19.1113 75.1328 21.1152ZM92.166 0.162109V0.513672C91.9668 0.841797 91.6621 1.24023 91.252 1.70898C90.8418 2.17773 90.373 2.67578 89.8457 3.20312C89.3301 3.73047 88.8086 4.23438 88.2812 4.71484C87.7539 5.18359 87.2793 5.58789 86.8574 5.92773H84.5898V5.4707C84.9414 5.01367 85.3223 4.47461 85.7324 3.85352C86.1426 3.23242 86.541 2.59961 86.9277 1.95508C87.3262 1.29883 87.6543 0.701172 87.9121 0.162109H92.166ZM85.5391 0.162109V0.513672C85.3398 0.841797 85.0352 1.24023 84.625 1.70898C84.2148 2.17773 83.7461 2.67578 83.2188 3.20312C82.7031 3.73047 82.1816 4.23438 81.6543 4.71484C81.127 5.18359 80.6523 5.58789 80.2305 5.92773H77.9629V5.4707C78.3145 5.01367 78.6895 4.47461 79.0879 3.85352C79.498 3.23242 79.8965 2.59961 80.2832 1.95508C80.6816 1.29883 81.0156 0.701172 81.2852 0.162109H85.5391ZM119.869 34H115.018L107.02 22.3281L104.488 24.3848V34H100.27V8.30078H104.488V20.5879C105.004 19.9551 105.525 19.3223 106.053 18.6895C106.58 18.0566 107.107 17.4238 107.635 16.791L114.877 8.30078H119.641L110.043 19.5508L119.869 34ZM137.816 34H123.262V8.30078H137.816V11.8516H127.48V18.8301H137.166V22.3633H127.48V30.4316H137.816V34ZM136.814 0.162109V0.513672C136.533 0.853516 136.152 1.26367 135.672 1.74414C135.191 2.21289 134.67 2.71094 134.107 3.23828C133.545 3.75391 132.988 4.25195 132.438 4.73242C131.887 5.20117 131.389 5.59961 130.943 5.92773H128.184V5.4707C128.57 5.02539 128.998 4.49219 129.467 3.87109C129.947 3.25 130.416 2.61133 130.873 1.95508C131.342 1.29883 131.734 0.701172 132.051 0.162109H136.814ZM150.842 8.30078C154.158 8.30078 156.578 8.98047 158.102 10.3398C159.625 11.6992 160.387 13.6035 160.387 16.0527C160.387 17.166 160.211 18.2266 159.859 19.2344C159.52 20.2305 158.957 21.1152 158.172 21.8887C157.387 22.6504 156.35 23.2539 155.061 23.6992C153.783 24.1445 152.207 24.3672 150.332 24.3672H147.59V34H143.371V8.30078H150.842ZM150.561 11.7988H147.59V20.8516H149.893C151.217 20.8516 152.342 20.6992 153.268 20.3945C154.193 20.0781 154.896 19.5801 155.377 18.9004C155.857 18.2207 156.098 17.3242 156.098 16.2109C156.098 14.7227 155.646 13.6152 154.744 12.8887C153.854 12.1621 152.459 11.7988 150.561 11.7988Z" fill="#8A8A8A"/>
</g>
<defs>
<filter id="filter0_i_49_5" x="0" y="0.162109" width="268" height="109.838" filterUnits="userSpaceOnUse" color-interpolation-filters="sRGB">
<feFlood flood-opacity="0" result="BackgroundImageFix"/>
<feBlend mode="normal" in="SourceGraphic" in2="BackgroundImageFix" result="shape"/>
<feColorMatrix in="SourceAlpha" type="matrix" values="0 0 0 0 0 0 0 0 0 0 0 0 0 0 0 0 0 0 127 0" result="hardAlpha"/>
<feOffset dy="4"/>
<feGaussianBlur stdDeviation="2"/>
<feComposite in2="hardAlpha" operator="arithmetic" k2="-1" k3="1"/>
<feColorMatrix type="matrix" values="0 0 0 0 0 0 0 0 0 0 0 0 0 0 0 0 0 0 0.25 0"/>
<feBlend mode="normal" in2="shape" result="effect1_innerShadow_49_5"/>
</filter>
</defs>
</svg>
